<mxfile host="Electron" modified="2023-10-16T04:54:48.376Z" agent="Mozilla/5.0 (Windows NT 10.0; Win64; x64) AppleWebKit/537.36 (KHTML, like Gecko) draw.io/21.2.8 Chrome/112.0.5615.165 Electron/24.2.0 Safari/537.36" etag="GsZf09XvfncV0WBNkXSx" version="21.2.8" type="device">
  <diagram name="페이지-1" id="vYpUhtBlWjCpaYyadkhN">
    <mxGraphModel dx="1418" dy="828" grid="1" gridSize="10" guides="1" tooltips="1" connect="1" arrows="1" fold="1" page="1" pageScale="1" pageWidth="1169" pageHeight="827" math="0" shadow="0">
      <root>
        <mxCell id="0" />
        <mxCell id="1" parent="0" />
        <mxCell id="MHd4tFl28jQDfsMx3L62-2" value="&lt;h1&gt;K8s Cluster&lt;/h1&gt;" style="rounded=1;whiteSpace=wrap;html=1;spacing=0;spacingBottom=400;fillColor=none;" parent="1" vertex="1">
          <mxGeometry x="390" y="50" width="620" height="450" as="geometry" />
        </mxCell>
        <mxCell id="MHd4tFl28jQDfsMx3L62-32" value="DETECT VAP" style="edgeStyle=orthogonalEdgeStyle;rounded=0;orthogonalLoop=1;jettySize=auto;html=1;exitX=0;exitY=0.5;exitDx=0;exitDy=0;entryX=1;entryY=0.5;entryDx=0;entryDy=0;" parent="1" source="MHd4tFl28jQDfsMx3L62-14" target="MHd4tFl28jQDfsMx3L62-25" edge="1">
          <mxGeometry relative="1" as="geometry" />
        </mxCell>
        <mxCell id="MHd4tFl28jQDfsMx3L62-40" value="Make Pod" style="edgeStyle=orthogonalEdgeStyle;rounded=0;orthogonalLoop=1;jettySize=auto;html=1;exitX=0.75;exitY=1;exitDx=0;exitDy=0;entryX=0.571;entryY=0.023;entryDx=0;entryDy=0;entryPerimeter=0;" parent="1" source="MHd4tFl28jQDfsMx3L62-14" target="MHd4tFl28jQDfsMx3L62-37" edge="1">
          <mxGeometry relative="1" as="geometry" />
        </mxCell>
        <mxCell id="MHd4tFl28jQDfsMx3L62-14" value="Piccolo Controller" style="rounded=0;whiteSpace=wrap;html=1;" parent="1" vertex="1">
          <mxGeometry x="740" y="115" width="240" height="90" as="geometry" />
        </mxCell>
        <mxCell id="MHd4tFl28jQDfsMx3L62-33" value="READ Info" style="edgeStyle=orthogonalEdgeStyle;rounded=0;orthogonalLoop=1;jettySize=auto;html=1;exitX=1;exitY=0.5;exitDx=0;exitDy=0;entryX=0.168;entryY=0.989;entryDx=0;entryDy=0;entryPerimeter=0;" parent="1" source="MHd4tFl28jQDfsMx3L62-17" target="MHd4tFl28jQDfsMx3L62-14" edge="1">
          <mxGeometry relative="1" as="geometry" />
        </mxCell>
        <mxCell id="MHd4tFl28jQDfsMx3L62-17" value="DevRes" style="swimlane;whiteSpace=wrap;html=1;" parent="1" vertex="1">
          <mxGeometry x="420" y="260" width="220" height="100" as="geometry" />
        </mxCell>
        <mxCell id="MHd4tFl28jQDfsMx3L62-18" value="name : &lt;b&gt;&lt;font color=&quot;#ff0000&quot;&gt;cam-interior-driver&lt;/font&gt;&lt;/b&gt;&lt;br&gt;path : ~~~~~" style="text;html=1;align=left;verticalAlign=middle;resizable=0;points=[];autosize=1;strokeColor=none;fillColor=none;" parent="MHd4tFl28jQDfsMx3L62-17" vertex="1">
          <mxGeometry x="10" y="30" width="170" height="40" as="geometry" />
        </mxCell>
        <mxCell id="MHd4tFl28jQDfsMx3L62-34" value="READ Info" style="edgeStyle=orthogonalEdgeStyle;rounded=0;orthogonalLoop=1;jettySize=auto;html=1;exitX=1;exitY=0.5;exitDx=0;exitDy=0;entryX=0.3;entryY=0.989;entryDx=0;entryDy=0;entryPerimeter=0;" parent="1" source="MHd4tFl28jQDfsMx3L62-19" target="MHd4tFl28jQDfsMx3L62-14" edge="1">
          <mxGeometry relative="1" as="geometry" />
        </mxCell>
        <mxCell id="MHd4tFl28jQDfsMx3L62-19" value="VehContainerConfig" style="swimlane;whiteSpace=wrap;html=1;" parent="1" vertex="1">
          <mxGeometry x="420" y="370" width="220" height="100" as="geometry" />
        </mxCell>
        <mxCell id="MHd4tFl28jQDfsMx3L62-20" value="name : &lt;b&gt;&lt;font color=&quot;#0000ff&quot;&gt;vehicle-x11-window&lt;/font&gt;&lt;/b&gt;&lt;br&gt;ENV value : ~~~~~&lt;br&gt;mount path : ~~~~~" style="text;html=1;align=left;verticalAlign=middle;resizable=0;points=[];autosize=1;strokeColor=none;fillColor=none;" parent="MHd4tFl28jQDfsMx3L62-19" vertex="1">
          <mxGeometry x="10" y="28" width="180" height="60" as="geometry" />
        </mxCell>
        <mxCell id="MHd4tFl28jQDfsMx3L62-28" value="kubectl apply" style="edgeStyle=orthogonalEdgeStyle;rounded=0;orthogonalLoop=1;jettySize=auto;html=1;exitX=1;exitY=0.5;exitDx=0;exitDy=0;entryX=0;entryY=0.5;entryDx=0;entryDy=0;" parent="1" source="MHd4tFl28jQDfsMx3L62-3" target="MHd4tFl28jQDfsMx3L62-25" edge="1">
          <mxGeometry relative="1" as="geometry" />
        </mxCell>
        <mxCell id="MHd4tFl28jQDfsMx3L62-3" value="cr_vehpod_cameratest.yaml" style="swimlane;whiteSpace=wrap;html=1;" parent="1" vertex="1">
          <mxGeometry x="70" y="100" width="220" height="120" as="geometry">
            <mxRectangle x="200" y="120" width="170" height="30" as="alternateBounds" />
          </mxGeometry>
        </mxCell>
        <mxCell id="MHd4tFl28jQDfsMx3L62-4" value="kind : VehPod&lt;br&gt;Pod Spec : container image name&lt;br&gt;Device info : &lt;b&gt;&lt;font color=&quot;#ff0000&quot;&gt;cam-interior-driver&lt;/font&gt;&lt;/b&gt;&lt;br&gt;Function info : &lt;b&gt;&lt;font color=&quot;#0000ff&quot;&gt;vehicle-x11-window&lt;/font&gt;&lt;/b&gt;" style="text;html=1;align=left;verticalAlign=middle;resizable=0;points=[];autosize=1;strokeColor=none;fillColor=none;" parent="MHd4tFl28jQDfsMx3L62-3" vertex="1">
          <mxGeometry x="10" y="35" width="210" height="70" as="geometry" />
        </mxCell>
        <mxCell id="MHd4tFl28jQDfsMx3L62-24" value="kubectl apply" style="edgeStyle=orthogonalEdgeStyle;rounded=0;orthogonalLoop=1;jettySize=auto;html=1;exitX=1;exitY=0.5;exitDx=0;exitDy=0;entryX=0;entryY=0.5;entryDx=0;entryDy=0;" parent="1" source="MHd4tFl28jQDfsMx3L62-5" target="MHd4tFl28jQDfsMx3L62-17" edge="1">
          <mxGeometry relative="1" as="geometry" />
        </mxCell>
        <mxCell id="MHd4tFl28jQDfsMx3L62-5" value="cr_devres_camera.yaml" style="swimlane;whiteSpace=wrap;html=1;" parent="1" vertex="1">
          <mxGeometry x="70" y="260" width="220" height="100" as="geometry" />
        </mxCell>
        <mxCell id="MHd4tFl28jQDfsMx3L62-6" value="kind : DevRes&lt;br&gt;name : &lt;b&gt;&lt;font color=&quot;#ff0000&quot;&gt;cam-interior-driver&lt;/font&gt;&lt;/b&gt;&lt;br&gt;path : ~~~~~" style="text;html=1;align=left;verticalAlign=middle;resizable=0;points=[];autosize=1;strokeColor=none;fillColor=none;" parent="MHd4tFl28jQDfsMx3L62-5" vertex="1">
          <mxGeometry x="10" y="20" width="170" height="60" as="geometry" />
        </mxCell>
        <mxCell id="MHd4tFl28jQDfsMx3L62-23" value="kubectl apply" style="edgeStyle=orthogonalEdgeStyle;rounded=0;orthogonalLoop=1;jettySize=auto;html=1;exitX=1;exitY=0.5;exitDx=0;exitDy=0;entryX=0;entryY=0.5;entryDx=0;entryDy=0;" parent="1" source="MHd4tFl28jQDfsMx3L62-7" target="MHd4tFl28jQDfsMx3L62-19" edge="1">
          <mxGeometry relative="1" as="geometry" />
        </mxCell>
        <mxCell id="MHd4tFl28jQDfsMx3L62-7" value="cr_vehcontainerconfig_x11.yaml" style="swimlane;whiteSpace=wrap;html=1;" parent="1" vertex="1">
          <mxGeometry x="70" y="370" width="220" height="100" as="geometry" />
        </mxCell>
        <mxCell id="MHd4tFl28jQDfsMx3L62-8" value="kind : VehContainerConfig&lt;br&gt;name : &lt;b&gt;&lt;font color=&quot;#0000ff&quot;&gt;vehicle-x11-window&lt;/font&gt;&lt;/b&gt;&lt;br&gt;ENV value : ~~~~~&lt;br&gt;mount path : ~~~~~" style="text;html=1;align=left;verticalAlign=middle;resizable=0;points=[];autosize=1;strokeColor=none;fillColor=none;" parent="MHd4tFl28jQDfsMx3L62-7" vertex="1">
          <mxGeometry x="10" y="30" width="180" height="70" as="geometry" />
        </mxCell>
        <mxCell id="MHd4tFl28jQDfsMx3L62-12" value="&lt;h1&gt;YAML files&lt;/h1&gt;" style="rounded=1;whiteSpace=wrap;html=1;fillColor=none;spacingBottom=400;container=0;" parent="1" vertex="1">
          <mxGeometry x="40" y="50" width="280" height="450" as="geometry" />
        </mxCell>
        <mxCell id="MHd4tFl28jQDfsMx3L62-25" value="VehPod" style="swimlane;whiteSpace=wrap;html=1;" parent="1" vertex="1">
          <mxGeometry x="420" y="100" width="220" height="120" as="geometry">
            <mxRectangle x="200" y="120" width="170" height="30" as="alternateBounds" />
          </mxGeometry>
        </mxCell>
        <mxCell id="MHd4tFl28jQDfsMx3L62-26" value="Pod Spec : container image name&lt;br&gt;Device info : &lt;b&gt;&lt;font color=&quot;#ff0000&quot;&gt;cam-interior-driver&lt;/font&gt;&lt;/b&gt;&lt;br&gt;Function info : &lt;b&gt;&lt;font color=&quot;#0000ff&quot;&gt;vehicle-x11-window&lt;/font&gt;&lt;/b&gt;" style="text;html=1;align=left;verticalAlign=middle;resizable=0;points=[];autosize=1;strokeColor=none;fillColor=none;" parent="MHd4tFl28jQDfsMx3L62-25" vertex="1">
          <mxGeometry x="8" y="36" width="210" height="60" as="geometry" />
        </mxCell>
        <mxCell id="MHd4tFl28jQDfsMx3L62-43" style="edgeStyle=orthogonalEdgeStyle;rounded=0;orthogonalLoop=1;jettySize=auto;html=1;exitX=1;exitY=0.5;exitDx=0;exitDy=0;entryX=0;entryY=0.5;entryDx=0;entryDy=0;" parent="1" source="MHd4tFl28jQDfsMx3L62-37" target="MHd4tFl28jQDfsMx3L62-41" edge="1">
          <mxGeometry relative="1" as="geometry" />
        </mxCell>
        <mxCell id="MHd4tFl28jQDfsMx3L62-37" value="Pod" style="swimlane;whiteSpace=wrap;html=1;" parent="1" vertex="1">
          <mxGeometry x="840" y="245" width="150" height="130" as="geometry" />
        </mxCell>
        <mxCell id="MHd4tFl28jQDfsMx3L62-38" value="This container running&lt;br&gt;camera-tesy.py&lt;br&gt;and&lt;br&gt;&lt;div style=&quot;&quot;&gt;&lt;span style=&quot;background-color: initial;&quot;&gt;display image frame&lt;/span&gt;&lt;/div&gt;" style="text;html=1;align=left;verticalAlign=middle;resizable=0;points=[];autosize=1;strokeColor=none;fillColor=none;" parent="1" vertex="1">
          <mxGeometry x="840" y="275" width="140" height="70" as="geometry" />
        </mxCell>
        <mxCell id="MHd4tFl28jQDfsMx3L62-41" value="Camera display" style="rounded=0;whiteSpace=wrap;html=1;" parent="1" vertex="1">
          <mxGeometry x="1040" y="280" width="110" height="60" as="geometry" />
        </mxCell>
      </root>
    </mxGraphModel>
  </diagram>
</mxfile>
